<svg width="90" height="20" xmlns="http://www.w3.org/2000/svg"><path d="M5 10a5 5 0 1 1 0 10 5 5 0 0 1 0-10ZM15 0a5 5 0 1 1 0 10 5 5 0 0 1 0-10Zm16.515 18.34V9.964c.226-.293.5-.513.824-.66.324-.146.689-.22 1.095-.22.587 0 1.058.205 1.412.614.353.408.53.945.53 1.608v7.034h3.658v-7.543a7.069 7.069 0 0 0-.045-.787c.241-.293.527-.52.858-.683.331-.162.7-.242 1.107-.242.587 0 1.057.204 1.411.613.354.408.53.945.53 1.608v7.034h3.659v-7.543c0-1.435-.433-2.615-1.299-3.54-.865-.926-1.976-1.389-3.33-1.389-.783 0-1.506.147-2.168.44a4.968 4.968 0 0 0-1.716 1.25 4.316 4.316 0 0 0-1.524-1.239 4.504 4.504 0 0 0-2.021-.45c-.557 0-1.088.084-1.592.254-.505.17-.967.424-1.389.763V6.1h-3.658v12.24h3.658Zm23.168.231c.993 0 1.885-.146 2.675-.44.79-.292 1.562-.763 2.315-1.41l-2.416-2.199c-.286.293-.632.52-1.039.683a3.63 3.63 0 0 1-1.355.243c-.692 0-1.294-.182-1.806-.544a3.22 3.22 0 0 1-1.13-1.4h8.514v-.926a7.74 7.74 0 0 0-.452-2.672c-.301-.825-.719-1.531-1.253-2.117A5.875 5.875 0 0 0 56.828 6.4a5.71 5.71 0 0 0-2.416-.509c-.873 0-1.69.162-2.45.486a6.032 6.032 0 0 0-1.976 1.342 6.357 6.357 0 0 0-1.321 2.025 6.418 6.418 0 0 0-.486 2.487c0 .88.17 1.709.508 2.488a6.378 6.378 0 0 0 1.378 2.024 6.268 6.268 0 0 0 2.066 1.343 6.717 6.717 0 0 0 2.552.485Zm2.167-7.682h-4.99c.18-.617.49-1.095.926-1.434.436-.34.956-.51 1.558-.51.587 0 1.103.178 1.547.533.444.355.764.825.96 1.411Zm11.268 7.682c.994 0 1.885-.146 2.676-.44.79-.292 1.562-.763 2.314-1.41l-2.416-2.199c-.286.293-.632.52-1.039.683a3.63 3.63 0 0 1-1.354.243c-.693 0-1.295-.182-1.807-.544a3.22 3.22 0 0 1-1.129-1.4h8.513v-.926a7.74 7.74 0 0 0-.452-2.672c-.3-.825-.718-1.531-1.253-2.117A5.875 5.875 0 0 0 70.263 6.4a5.71 5.71 0 0 0-2.416-.509c-.873 0-1.69.162-2.45.486a6.032 6.032 0 0 0-1.976 1.342 6.357 6.357 0 0 0-1.32 2.025 6.418 6.418 0 0 0-.486 2.487c0 .88.17 1.709.508 2.488a6.378 6.378 0 0 0 1.377 2.024 6.268 6.268 0 0 0 2.066 1.343 6.717 6.717 0 0 0 2.552.485Zm2.168-7.682h-4.99c.18-.617.489-1.095.925-1.434.437-.34.956-.51 1.558-.51.587 0 1.103.178 1.547.533.444.355.764.825.96 1.411Zm11.335 7.613c.346 0 .775-.035 1.287-.104a7.37 7.37 0 0 0 1.265-.266V15.1c-.301.092-.58.158-.836.196a5.456 5.456 0 0 1-.813.058c-.587 0-.997-.112-1.23-.335-.234-.224-.35-.606-.35-1.146v-4.65h3.342V6.1h-3.342V2.143l-3.658.81V6.1H74.87v3.123h2.416v5.392c0 1.28.365 2.248 1.095 2.904.73.655 1.81.983 3.24.983Zm6.042-13.225c.462 0 .853-.156 1.172-.466.318-.31.478-.7.478-1.173 0-.463-.16-.852-.478-1.166A1.604 1.604 0 0 0 87.663 2c-.463 0-.856.157-1.179.472A1.563 1.563 0 0 0 86 3.638c0 .472.161.863.484 1.173.323.31.716.466 1.179.466Z" fill="#ADADAD" fill-rule="evenodd"/></svg>