<svg width="73" height="36" xmlns="http://www.w3.org/2000/svg"><path d="M6.476 17.85c1.434 0 2.715-.47 3.726-1.287l.364.87h3.289V5.126h-3.17l-.436.952C9.23 5.238 7.93 4.754 6.476 4.754 2.699 4.754 0 7.467 0 11.28c0 3.825 2.7 6.571 6.476 6.571Zm.568-3.754c-1.593 0-2.764-1.2-2.764-2.807 0-1.598 1.161-2.797 2.764-2.797 1.594 0 2.765 1.2 2.765 2.797 0 1.607-1.171 2.807-2.765 2.807Zm15.422 3.754c3.648 0 6.078-2.243 6.078-5.687V5.138H24.29v6.84c0 1.286-.687 2.064-1.824 2.064-1.136 0-1.837-.765-1.837-2.064v-6.84h-4.254v7.025c0 3.444 2.443 5.687 6.091 5.687Zm14.361.013c1.439 0 2.72-.488 3.725-1.33l.401.914h3.148V.694h-4.205v4.895a5.78 5.78 0 0 0-3.069-.854c-3.79 0-6.489 2.732-6.489 6.557 0 3.826 2.7 6.571 6.49 6.571Zm.57-3.754c-1.594 0-2.765-1.21-2.765-2.816 0-1.608 1.17-2.817 2.764-2.817 1.594 0 2.765 1.21 2.765 2.817 0 1.607-1.171 2.816-2.765 2.816ZM50.99 3.598V0H46.8v3.598h4.19Zm.032 13.848V5.138H46.77v12.308h4.254Zm8.88.404c4.014 0 6.925-2.755 6.925-6.558 0-3.815-2.911-6.557-6.924-6.557-4.027 0-6.925 2.742-6.925 6.557 0 3.803 2.898 6.558 6.925 6.558Zm9.76-9.573c.463 0 .853-.156 1.172-.466.318-.31.478-.7.478-1.173 0-.463-.16-.852-.478-1.166A1.604 1.604 0 0 0 69.663 5c-.463 0-.856.157-1.179.472A1.563 1.563 0 0 0 68 6.638c0 .472.161.863.484 1.173.323.31.716.466 1.179.466Zm-9.76 5.765c-1.55 0-2.663-1.122-2.663-2.75 0-1.627 1.113-2.748 2.664-2.748 1.55 0 2.663 1.131 2.663 2.749 0 1.627-1.112 2.749-2.663 2.749Zm-39.676 21.86v-4.846a5.789 5.789 0 0 0 3.01.817c3.777 0 6.476-2.735 6.476-6.57 0-3.835-2.7-6.558-6.475-6.558-1.468 0-2.775.506-3.79 1.381l-.533-.977h-2.893v16.753h4.205Zm2.442-7.783c-1.594 0-2.765-1.2-2.765-2.816 0-1.617 1.171-2.817 2.765-2.817 1.593 0 2.764 1.2 2.764 2.817 0 1.617-1.18 2.816-2.764 2.816Zm13.25 3.338v-6.573c0-1.58.802-2.49 2.09-2.49 1.11 0 1.61.724 1.61 2.144v6.919h4.253v-7.412c0-3.19-1.822-5.26-4.657-5.26a5.28 5.28 0 0 0-3.297 1.174v-5.255h-4.253v16.753h4.253Zm14.718-13.849V14.01h-4.189v3.598h4.189Zm.033 13.849V19.148h-4.254v12.309h4.254Zm6.929 0V14.704h-4.254v16.753H57.6Zm8.664.404c3.099 0 5.597-1.755 6.466-4.564h-4.233c-.409.72-1.24 1.154-2.233 1.154-1.343 0-2.243-.73-2.52-2.142h9.17c.055-.38.087-.752.087-1.122 0-3.611-2.756-6.442-6.737-6.442-3.876 0-6.708 2.775-6.708 6.548 0 3.76 2.855 6.568 6.708 6.568Zm2.547-7.9h-4.993c.344-1.222 1.206-1.894 2.446-1.894 1.284 0 2.173.664 2.547 1.894Z" fill="#ADADAD"/></svg>