<svg width="83" height="24" xmlns="http://www.w3.org/2000/svg"><path d="M35.276 17.143V11.76c0-.51.141-.925.424-1.246.282-.321.656-.482 1.123-.482.488 0 .87.164 1.148.49.277.326.415.783.415 1.37v5.25h2.238V11.76c0-.34.065-.64.194-.9.129-.261.308-.464.539-.61.23-.145.502-.218.814-.218.489 0 .871.164 1.148.49.277.326.416.783.416 1.37v5.25h2.238V11.3c0-.971-.26-1.757-.778-2.358-.518-.6-1.285-.9-2.3-.9-.592 0-1.131.13-1.616.39-.486.26-.873.624-1.16 1.09l.062-.096-.037-.07a2.632 2.632 0 0 0-.687-.768l-.145-.103c-.447-.296-1.02-.444-1.716-.444-.609 0-1.159.134-1.65.403-.327.18-.61.401-.848.666l-.102.12v-.975h-1.975v8.887h2.255Zm15.305.247c.768 0 1.403-.133 1.905-.4.39-.206.76-.514 1.109-.921l.014-.018v1.092h1.958v-5.431c0-.406-.016-.773-.049-1.103a2.653 2.653 0 0 0-.313-.987 2.61 2.61 0 0 0-1.382-1.25c-.609-.242-1.306-.363-2.09-.363-1.07 0-1.915.23-2.534.691a3.434 3.434 0 0 0-1.268 1.794l2.025.642c.142-.406.392-.688.748-.848.357-.159.7-.238 1.029-.238.592 0 1.015.123 1.267.37.177.173.292.414.345.724l.015.116-.357.053-.366.055-.353.052c-.576.085-1.091.174-1.547.267-.455.094-.847.2-1.176.321-.478.176-.858.394-1.14.654-.283.261-.487.561-.613.901a3.22 3.22 0 0 0-.19 1.128c0 .493.114.945.342 1.353.228.409.562.735 1.004.98.442.244.98.366 1.617.366Zm.477-1.761c-.258 0-.48-.039-.666-.115a.953.953 0 0 1-.432-.334.89.89 0 0 1-.153-.522c0-.148.032-.283.095-.403.063-.121.162-.232.296-.334.135-.101.312-.196.531-.284.192-.07.414-.137.667-.197.252-.06.584-.128.995-.202.257-.046.564-.1.92-.16l.03-.004v.007a15.73 15.73 0 0 1-.014.333l-.01.186c-.02.321-.086.603-.202.844-.06.126-.174.282-.341.469a2.32 2.32 0 0 1-.675.498c-.282.145-.63.218-1.04.218Zm8.92 1.514v-4.279l3.077 4.279h2.913l-3.423-4.444 3.21-4.443H62.99l-3.012 4.279V5.294h-2.271l-.017 11.849h2.288Zm14.968-3.818c.093-1.075-.017-2.01-.33-2.806-.312-.796-.795-1.413-1.448-1.852-.652-.438-1.445-.658-2.378-.658-.877 0-1.654.199-2.328.597a4.192 4.192 0 0 0-1.589 1.674c-.384.719-.576 1.564-.576 2.535 0 .888.197 1.677.589 2.365a4.244 4.244 0 0 0 1.63 1.621c.693.393 1.495.589 2.406.589.856 0 1.644-.225 2.366-.675a3.937 3.937 0 0 0 1.584-1.893l-2.239-.641c-.164.362-.403.639-.715.83-.313.193-.689.289-1.128.289-.696 0-1.224-.227-1.584-.68-.248-.313-.411-.716-.488-1.21l-.012-.085h6.24Zm-2.265-1.662h-3.915l.016-.076c.077-.323.191-.6.345-.83l.08-.11c.359-.464.92-.696 1.682-.696.653 0 1.123.199 1.411.597.177.244.3.585.368 1.022l.013.093Zm6.37 5.48V12.6c0-.34.047-.646.14-.918a2.02 2.02 0 0 1 .412-.707c.181-.2.403-.361.667-.482.263-.126.558-.201.884-.226.327-.025.613.001.86.078v-2.09a4.173 4.173 0 0 0-.806-.02c-.27.019-.53.065-.782.14a2.869 2.869 0 0 0-.7.308c-.28.164-.515.373-.707.625a3.2 3.2 0 0 0-.212.316l-.035.063V8.256h-1.975v8.887h2.255ZM10.972 0c5.466 0 9.999 3.997 10.834 9.228A8.914 8.914 0 0 1 9.228 21.805C3.998 20.97 0 16.438 0 10.971 0 4.912 4.912 0 10.97 0Zm4.099 6.171a8.914 8.914 0 0 0-5.842 15.634 11.095 11.095 0 0 0 2.639.102 7.543 7.543 0 0 1 3.226-14.364 7.55 7.55 0 0 1 6.813 4.322 10.972 10.972 0 0 1-10.04 10.042 7.543 7.543 0 0 0 10.04-10.042 11.052 11.052 0 0 0-.1-2.637 8.892 8.892 0 0 0-6.736-3.057Z" fill="#ADADAD"/></svg>