<svg width="114" height="20" xmlns="http://www.w3.org/2000/svg"><path d="M22.887 20c.838 0 1.576-.183 2.213-.55a4.977 4.977 0 0 0 1.584-1.429v1.638h3.195V0h-3.195v8.191A4.848 4.848 0 0 0 25.1 6.756c-.637-.362-1.375-.544-2.213-.544-.951 0-1.842.18-2.67.538-.83.358-1.561.854-2.194 1.487a6.996 6.996 0 0 0-1.486 2.196A6.68 6.68 0 0 0 16 13.106c0 .953.179 1.844.537 2.674.358.83.853 1.562 1.486 2.195a6.989 6.989 0 0 0 2.193 1.488c.83.358 1.72.537 2.671.537Zm.04-3.08a3.42 3.42 0 0 1-1.827-.511 3.826 3.826 0 0 1-1.827-3.303c0-.708.166-1.35.498-1.926a3.9 3.9 0 0 1 1.322-1.383 3.379 3.379 0 0 1 1.834-.518c.672 0 1.272.17 1.8.511.528.341.94.802 1.237 1.383.297.581.445 1.225.445 1.933 0 .7-.148 1.34-.445 1.92a3.53 3.53 0 0 1-1.23 1.383c-.524.34-1.127.511-1.807.511ZM39.294 20c.794 0 1.486-.181 2.075-.544a4.375 4.375 0 0 0 1.434-1.422l.13 1.625h3.209V6.553h-3.195l.144 1.678a5.992 5.992 0 0 0-1.748-1.468c-.685-.385-1.464-.577-2.337-.577-.934 0-1.807.175-2.619.524a6.818 6.818 0 0 0-2.147 1.455c-.62.62-1.1 1.341-1.44 2.163a6.81 6.81 0 0 0-.511 2.634 6.935 6.935 0 0 0 2.042 4.967 7.16 7.16 0 0 0 2.24 1.52c.846.368 1.754.551 2.723.551Zm.091-3.08a3.51 3.51 0 0 1-1.813-.498 4.227 4.227 0 0 1-1.395-1.33 4.049 4.049 0 0 1-.654-1.842c-.061-.734.057-1.4.353-1.998a3.592 3.592 0 0 1 1.264-1.435 3.3 3.3 0 0 1 1.853-.538 3.32 3.32 0 0 1 1.794.498c.532.332.968.776 1.309 1.33.34.555.541 1.173.602 1.855.053.725-.054 1.387-.32 1.986a3.384 3.384 0 0 1-1.172 1.435c-.516.358-1.122.537-1.82.537Zm14.378 2.74V9.75h2.54V6.553h-2.54V2.438h-3.195v4.115H48.63v3.198h1.938v9.908h3.195Zm11.273.34c.795 0 1.486-.181 2.076-.544a4.375 4.375 0 0 0 1.433-1.422l.131 1.625h3.208V6.553H68.69l.145 1.678a5.992 5.992 0 0 0-1.749-1.468c-.685-.385-1.464-.577-2.337-.577-.934 0-1.807.175-2.619.524a6.818 6.818 0 0 0-2.147 1.455c-.62.62-1.1 1.341-1.44 2.163a6.81 6.81 0 0 0-.51 2.634 6.935 6.935 0 0 0 2.042 4.967 7.16 7.16 0 0 0 2.239 1.52c.847.368 1.754.551 2.723.551Zm.092-3.08a3.51 3.51 0 0 1-1.814-.498 4.227 4.227 0 0 1-1.394-1.33 4.049 4.049 0 0 1-.655-1.842c-.06-.734.057-1.4.354-1.998a3.592 3.592 0 0 1 1.263-1.435 3.3 3.3 0 0 1 1.853-.538 3.32 3.32 0 0 1 1.794.498c.532.332.969.776 1.31 1.33.34.555.54 1.173.602 1.855.052.725-.055 1.387-.321 1.986a3.384 3.384 0 0 1-1.172 1.435c-.515.358-1.122.537-1.82.537ZM81.993 20c.96 0 1.857-.18 2.69-.537a6.968 6.968 0 0 0 3.687-3.696 6.774 6.774 0 0 0 .536-2.687c0-1.267-.31-2.423-.93-3.467a7.027 7.027 0 0 0-2.5-2.496c-1.048-.62-2.209-.93-3.483-.93-.82 0-1.547.185-2.18.556a5.15 5.15 0 0 0-1.591 1.448V0h-3.195v19.66h3.195v-1.665a5.15 5.15 0 0 0 1.59 1.448c.634.371 1.36.557 2.18.557Zm-.04-3.093c-.663 0-1.256-.17-1.78-.511a3.53 3.53 0 0 1-1.231-1.383 4.187 4.187 0 0 1-.445-1.933c0-.69.148-1.326.445-1.907a3.58 3.58 0 0 1 1.23-1.39 3.164 3.164 0 0 1 1.782-.517c.672 0 1.287.17 1.846.511.558.341 1.004.802 1.335 1.383.332.58.498 1.221.498 1.92 0 .708-.166 1.35-.498 1.927a3.88 3.88 0 0 1-1.329 1.382 3.435 3.435 0 0 1-1.852.518ZM92.874 4.6c.463 0 .854-.155 1.173-.465.318-.31.478-.701.478-1.173 0-.463-.16-.852-.478-1.166a1.604 1.604 0 0 0-1.172-.472c-.463 0-.856.157-1.179.472a1.563 1.563 0 0 0-.484 1.166c0 .472.161.863.484 1.173.323.31.716.465 1.179.465Zm19 5c.463 0 .854-.155 1.173-.465.318-.31.478-.701.478-1.173 0-.463-.16-.852-.478-1.166a1.604 1.604 0 0 0-1.172-.472c-.463 0-.856.157-1.179.472a1.563 1.563 0 0 0-.484 1.166c0 .472.161.863.484 1.173.323.31.716.465 1.179.465ZM6.979 19.324c1.835 0 3.385-.616 4.65-1.846 1.264-1.23 1.896-2.782 1.896-4.654 0-1.838-.632-3.38-1.897-4.628-1.264-1.248-2.814-1.872-4.65-1.872-1.835 0-3.393.624-4.675 1.872C1.021 9.444.38 10.986.38 12.824c0 1.872.64 3.423 1.922 4.654 1.282 1.23 2.84 1.846 4.676 1.846Zm87.48.335V6.553h-3.195V19.66h3.195Zm14.399 0v-3.198h-6.573l6.573-6.71V6.553H97.675v3.198h6.586l-6.586 6.71v3.198h11.182Z" fill="#ADADAD"/></svg>